<svg xmlns="http://www.w3.org/2000/svg" viewBox="0 0 256 256" role="img" aria-label="IKO-7 portrait">
  <defs>
    <linearGradient id="bg" x1="0" y1="0" x2="1" y2="1">
      <stop offset="0" stop-color="#17363f"/>
      <stop offset="1" stop-color="#071112"/>
    </linearGradient>
    <linearGradient id="metal" x1="0" y1="0" x2="0" y2="1">
      <stop offset="0" stop-color="#d9e9e8"/>
      <stop offset="1" stop-color="#60706f"/>
    </linearGradient>
  </defs>
  <rect width="256" height="256" rx="28" fill="url(#bg)"/>
  <path d="M128 25v33M72 70 48 46M184 70l24-24" stroke="#78d8ef" stroke-width="6" stroke-linecap="round" opacity=".7"/>
  <path d="M48 224c10-48 38-72 80-72s70 24 80 72z" fill="#244852"/>
  <rect x="67" y="60" width="122" height="106" rx="28" fill="url(#metal)"/>
  <rect x="84" y="89" width="88" height="42" rx="18" fill="#071112"/>
  <circle cx="109" cy="110" r="10" fill="#78d8ef"/>
  <circle cx="148" cy="110" r="10" fill="#78d8ef"/>
  <path d="M111 144h34" stroke="#071112" stroke-width="7" stroke-linecap="round"/>
  <path d="M67 93 38 78v70l29-15M189 93l29-15v70l-29-15" fill="#758684"/>
  <circle cx="128" cy="43" r="12" fill="#f0bf6a"/>
  <path d="M47 53c19 8 38 8 57 0M152 53c19 8 38 8 57 0" stroke="#78d8ef" stroke-width="4" opacity=".35"/>
</svg>
