<svg xmlns="http://www.w3.org/2000/svg" viewBox="0 0 256 256" role="img" aria-label="Ren Sato portrait">
  <defs>
    <linearGradient id="bg" x1="0" y1="0" x2="1" y2="1">
      <stop offset="0" stop-color="#233229"/>
      <stop offset="1" stop-color="#071112"/>
    </linearGradient>
  </defs>
  <rect width="256" height="256" rx="28" fill="url(#bg)"/>
  <path d="M30 68h196M42 100h172M34 132h188" stroke="#d7c79a" stroke-width="3" opacity=".22"/>
  <path d="M42 224c9-50 40-78 86-78s77 28 86 78z" fill="#295448"/>
  <path d="M82 224l22-74h48l22 74z" fill="#efe4cb"/>
  <circle cx="128" cy="108" r="53" fill="#c29578"/>
  <path d="M82 105c-5-39 14-70 45-72 31-2 54 19 55 67-25-18-58-19-100 5z" fill="#252525"/>
  <circle cx="105" cy="115" r="6" fill="#111"/>
  <circle cx="151" cy="115" r="6" fill="#111"/>
  <path d="M96 111h24M136 111h24M120 111h16" stroke="#0f1716" stroke-width="7" stroke-linecap="round"/>
  <rect x="92" y="101" width="32" height="24" rx="9" fill="none" stroke="#7fd6c2" stroke-width="5"/>
  <rect x="132" y="101" width="32" height="24" rx="9" fill="none" stroke="#7fd6c2" stroke-width="5"/>
  <path d="M112 148c10 5 22 5 32 0" fill="none" stroke="#6b3a36" stroke-width="6" stroke-linecap="round"/>
  <path d="M48 54l38-12v68L48 122z" fill="#e8d8aa"/>
  <path d="M58 61h18M58 73h18M58 85h18" stroke="#5b624e" stroke-width="3"/>
  <circle cx="196" cy="58" r="18" fill="#78d8ef" opacity=".2"/>
</svg>
